<svg xmlns="http://www.w3.org/2000/svg" viewBox="0 0 500 500"><g id="freepik--Floor--inject-3"><ellipse id="freepik--floor--inject-3" cx="250" cy="354.6" rx="237.63" ry="137.19" style="fill:#f5f5f5"></ellipse></g><g id="freepik--Trees--inject-3"><g id="freepik--Palm--inject-3"><path d="M400.16,248.26q-5.48-2.59-11.17-5c-.13-2.55-.22-5.22-.24-8-.23-32.09,8.91-56.23,16.2-69.31,11.72-21,22-28.72,25.61-31.06l2.94.55c-15.66,15.46-31.15,41.36-34.34,76.33A161.93,161.93,0,0,0,400.16,248.26Z" style="fill:#ebebeb"></path><path d="M431.83,134.35c2.29-1.55,1.29-1.55,4.45-3.23,4.8-2.55,12.6-2.41,19-.25,11.32,3.81,21.47,11.42,24.91,23.19-4.14-4.68-9.84-6.37-15.86-6.93-1.26-2.63-2.52-5.24-3.9-7.82-.28,2.43-.53,4.85-.71,7.28a22.74,22.74,0,0,1-7.94-2.31c-1.29-3.22-2.78-6.34-4.38-9.43.37,2.64.71,5.28,1,7.93C442.64,140.59,436.83,138.07,431.83,134.35Z" style="fill:#ebebeb"></path><g style="opacity:0.15"><path d="M431.83,134.35c2.29-1.55,1.29-1.55,4.45-3.23,4.8-2.55,12.6-2.41,19-.25,11.32,3.81,21.47,11.42,24.91,23.19-4.14-4.68-9.84-6.37-15.86-6.93-1.26-2.63-2.52-5.24-3.9-7.82-.28,2.43-.53,4.85-.71,7.28a22.74,22.74,0,0,1-7.94-2.31c-1.29-3.22-2.78-6.34-4.38-9.43.37,2.64.71,5.28,1,7.93C442.64,140.59,436.83,138.07,431.83,134.35Z" style="fill:#ebebeb"></path></g><path d="M433.4,135.5s1.62-3.45-2.57-10.23a38.31,38.31,0,0,0-23.76-16.63c-6-1.17-15.09-1-20.12,2.26a29,29,0,0,1,14,5.16,33.66,33.66,0,0,1,12.13-1.35s-6.84,2.38-8.49,3.89a20.51,20.51,0,0,0,9.33,6.54s5.56-4.19,10.63-3.11a12.83,12.83,0,0,0-7.84,4.82A92.86,92.86,0,0,0,433.4,135.5Z" style="fill:#ebebeb"></path><path d="M433.4,135.5s1.62-3.45-2.57-10.23a38.31,38.31,0,0,0-23.76-16.63c-6-1.17-15.09-1-20.12,2.26a29,29,0,0,1,14,5.16,33.66,33.66,0,0,1,12.13-1.35s-6.84,2.38-8.49,3.89a20.51,20.51,0,0,0,9.33,6.54s5.56-4.19,10.63-3.11a12.83,12.83,0,0,0-7.84,4.82A92.86,92.86,0,0,0,433.4,135.5Z" style="fill:#ebebeb;opacity:0.2"></path><path d="M433.4,135.5a35.23,35.23,0,0,0-20.14-7.79c-16.14-.95-26.55,5-31.13,11.1,0,0,7.79-4.07,17.7.33l6.94-5.5-2,7.14c2.13.82,5.11,1,8.72.75l7.27-7.7-3.24,7.34S427.37,140.66,433.4,135.5Z" style="fill:#ebebeb"></path><path d="M433.4,135.5a35.23,35.23,0,0,0-20.14-7.79c-16.14-.95-26.55,5-31.13,11.1,0,0,7.79-4.07,17.7.33l6.94-5.5-2,7.14c2.13.82,5.11,1,8.72.75l7.27-7.7-3.24,7.34S427.37,140.66,433.4,135.5Z" style="fill:#ebebeb;opacity:0.05"></path><path d="M433.4,135.5s3-.39,8.19,3c8.86,5.84,14.45,18.15,15.34,24.12s.3,14.89-3.11,19.7a28.51,28.51,0,0,0-4.47-14,33.14,33.14,0,0,0,1.86-11.88s-2.64,6.63-4.19,8.19a20.21,20.21,0,0,1-6-9.47s4.36-5.29,3.53-10.32a12.66,12.66,0,0,1-5.09,7.5S436.33,144.4,433.4,135.5Z" style="fill:#ebebeb"></path><path d="M433.4,135.5s3-.39,8.19,3c8.86,5.84,14.45,18.15,15.34,24.12s.3,14.89-3.11,19.7a28.51,28.51,0,0,0-4.47-14,33.14,33.14,0,0,0,1.86-11.88s-2.64,6.63-4.19,8.19a20.21,20.21,0,0,1-6-9.47s4.36-5.29,3.53-10.32a12.66,12.66,0,0,1-5.09,7.5S436.33,144.4,433.4,135.5Z" style="fill:#ebebeb;opacity:0.05"></path><path d="M413.27,177.35a24.45,24.45,0,0,0,5.38-9.47c.38-1.46.69-3,1-4.64,6-2.61,7.16-6.28,7.16-6.28a9.79,9.79,0,0,1-6.66,2.94c.1-3.6,1.31-7,2.14-10,4.59-1,6.49-3.21,6.49-3.21a11.67,11.67,0,0,1-5.87.64c2.52-6.27,7.36-10.86,10.52-11.8,0,0,3.1,3.06,1.43,15.46C433.09,163.77,424.14,174.84,413.27,177.35Z" style="fill:#ebebeb"></path></g><g id="freepik--palm--inject-3"><path d="M97.1,249.57c.22-11-.23-23.72-2.42-34.69-5.75-28.8-20.93-49-35.32-60.43l2.4-.72c3.2,1.63,12.43,7.11,24,23.56,7.23,10.23,17,29.49,19.62,56.2.36,3.6.56,7.72.65,11.93Q101.51,247.42,97.1,249.57Z" style="fill:#ebebeb"></path><path d="M60.64,153.33c-2-1.09-1.2-1.18-4-2.3-4.21-1.69-10.68-.88-15.84,1.48C31.73,156.68,24,163.91,22.15,174c3-4.26,7.62-6.17,12.57-7.17.82-2.3,1.64-4.59,2.55-6.85.46,2,.88,4,1.24,6a19.05,19.05,0,0,0,6.4-2.63c.79-2.79,1.75-5.52,2.8-8.22-.07,2.22-.12,4.45-.1,6.68A56.89,56.89,0,0,0,60.64,153.33Z" style="fill:#ebebeb"></path><g style="opacity:0.15"><path d="M60.64,153.33c-2-1.09-1.2-1.18-4-2.3-4.21-1.69-10.68-.88-15.84,1.48C31.73,156.68,24,163.91,22.15,174c3-4.26,7.62-6.17,12.57-7.17.82-2.3,1.64-4.59,2.55-6.85.46,2,.88,4,1.24,6a19.05,19.05,0,0,0,6.4-2.63c.79-2.79,1.75-5.52,2.8-8.22-.07,2.22-.12,4.45-.1,6.68A56.89,56.89,0,0,0,60.64,153.33Z" style="fill:#ebebeb"></path></g><path d="M59.44,154.42s-1.65-2.73,1.23-8.74A32.07,32.07,0,0,1,79,129.75c4.89-1.51,12.46-2.16,16.93.09a24.33,24.33,0,0,0-11.17,5.54,28.06,28.06,0,0,0-10.21,0s5.9,1.37,7.4,2.48a17.1,17.1,0,0,1-7.17,6.27s-5-3-9.12-1.65a10.77,10.77,0,0,1,6.95,3.32A77.49,77.49,0,0,1,59.44,154.42Z" style="fill:#ebebeb"></path><path d="M59.44,154.42s-1.65-2.73,1.23-8.74A32.07,32.07,0,0,1,79,129.75c4.89-1.51,12.46-2.16,16.93.09a24.33,24.33,0,0,0-11.17,5.54,28.06,28.06,0,0,0-10.21,0s5.9,1.37,7.4,2.48a17.1,17.1,0,0,1-7.17,6.27s-5-3-9.12-1.65a10.77,10.77,0,0,1,6.95,3.32A77.49,77.49,0,0,1,59.44,154.42Z" style="fill:#ebebeb;opacity:0.2"></path><path d="M59.44,154.42a29.43,29.43,0,0,1,16.06-8.26c13.33-2.23,22.52,1.78,26.87,6.47a18,18,0,0,0-14.69,1.84l-6.26-4,2.27,5.77a17.45,17.45,0,0,1-7.18,1.39l-6.73-5.76,3.34,5.82S64.91,158.18,59.44,154.42Z" style="fill:#ebebeb"></path><path d="M59.44,154.42a29.43,29.43,0,0,1,16.06-8.26c13.33-2.23,22.52,1.78,26.87,6.47a18,18,0,0,0-14.69,1.84l-6.26-4,2.27,5.77a17.45,17.45,0,0,1-7.18,1.39l-6.73-5.76,3.34,5.82S64.91,158.18,59.44,154.42Z" style="fill:#ebebeb;opacity:0.05"></path><path d="M59.44,154.42s-2.52-.06-6.54,3.26c-6.85,5.63-10.41,16.37-10.62,21.41s1.07,12.41,4.33,16.11a23.84,23.84,0,0,1,2.48-12,27.58,27.58,0,0,1-2.6-9.71s2.78,5.27,4.21,6.43a16.86,16.86,0,0,0,4.18-8.41s-4.1-4-3.85-8.27a10.6,10.6,0,0,0,4.9,5.79S57.79,162.08,59.44,154.42Z" style="fill:#ebebeb"></path><path d="M59.44,154.42s-2.52-.06-6.54,3.26c-6.85,5.63-10.41,16.37-10.62,21.41s1.07,12.41,4.33,16.11a23.84,23.84,0,0,1,2.48-12,27.58,27.58,0,0,1-2.6-9.71s2.78,5.27,4.21,6.43a16.86,16.86,0,0,0,4.18-8.41s-4.1-4-3.85-8.27a10.6,10.6,0,0,0,4.9,5.79S57.79,162.08,59.44,154.42Z" style="fill:#ebebeb;opacity:0.05"></path><path d="M79.89,187.44a20.54,20.54,0,0,1-5.32-7.4c-.44-1.18-.83-2.45-1.21-3.77-5.2-1.65-6.51-4.59-6.51-4.59a8.14,8.14,0,0,0,5.8,1.85c-.41-3-1.71-5.69-2.67-8.15a10,10,0,0,1-5.68-2.09,9.68,9.68,0,0,0,4.93,0c-2.65-5-7.08-8.38-9.79-8.88,0,0-2.31,2.82.18,13C62.2,177.9,70.63,186.32,79.89,187.44Z" style="fill:#ebebeb"></path></g></g><g id="freepik--Clouds--inject-3"><path id="freepik--Cloud--inject-3" d="M377.75,44.79c0-3.13-3.44-5.31-7.33-5.68-4.59-.43-7.84,1.61-7.95,5.22-3-1.23-6.15-.44-5.92,2.86-.78-.9-3.69-.88-4.74-.63a4.12,4.12,0,0,0-2.61,2.23,3,3,0,0,0-.27,1.69c-1.75-.58-5.73-.93-6.72.68-1.77,2.85,5.3,2.94,6.72,2.08.31,2.22,7.9,2.58,9.74.53,1.44,1.45,3.5,1.77,5.73,1.9,3.76.23,6.06-1.05,9-2.54,3.19,2.7,8.71,2.75,11.58-.34.73.69,2.75.9,4.37.52,1.06-.26,1.3-.71,1.3-.71a9.7,9.7,0,0,0,1.95.59c2.09.43,6,0,4.34-1.91a4.94,4.94,0,0,0-3.44-.84c-.91-1.79-4.56-3.48-6.66-2-.08-2.17-2.06-3.86-4.84-4.29C381.05,44,378.81,43.91,377.75,44.79Z" style="fill:#f5f5f5"></path><path id="freepik--cloud--inject-3" d="M470.65,73.85a8.9,8.9,0,0,0-2.87-.53c-.93-.07-1.23-.25-1.41-.46a6.86,6.86,0,0,0-8.24-2.43,5.28,5.28,0,0,0-6.22-3.52c.1-2.89-3.6-6-6.92-6.72s-6-.39-7.79,1.71c-1.95-3.81-9.58-4.88-13.71-2.87-2.38,1.16-4.39,2.35-5.38,4.53a9,9,0,0,0-.89,4.32c-1.61-1.42-4.83-1.8-7-1-2.32.9-2.5,2.65-2.61,4.42a8,8,0,0,0-4.22-.07c-1.46.43-2.31,1.58-2.1,2.5-1.16-.06-3.91.87-3.6,2.09.36,1.37,3.5,1.23,4.68,1.19a19.89,19.89,0,0,0,3.28-.52,5.14,5.14,0,0,0,1.71.33c2,0,2.85-.87,3.17-1.62,1,2.06,4.46,3.63,6.92,4.26,4.62,1.18,11.17.46,14-3a5.22,5.22,0,0,0,1.38,1.68,8,8,0,0,0,4.29,1.73c1.9.18,7,.43,8.43-2.6,1,2,5.56,2.93,9,2.44a14.18,14.18,0,0,0,3.86-1.17,22.64,22.64,0,0,0,2.23-1.33,1.82,1.82,0,0,1,1.89-.13,11.34,11.34,0,0,0,7.54,0C472.06,76.29,472.46,74.67,470.65,73.85Z" style="fill:#f5f5f5"></path></g><g id="freepik--Sun--inject-3"><circle id="freepik--sun--inject-3" cx="75.49" cy="65.38" r="32.9" style="fill:#ffbda7"></circle></g><g id="freepik--Shadow--inject-3"><ellipse id="freepik--shadow--inject-3" cx="258.97" cy="346.98" rx="151.75" ry="87.61" style="fill:#e0e0e0"></ellipse></g><g id="freepik--watermelon-2--inject-3"><g id="freepik--Watermelon--inject-3"><path d="M360.6,211l-33.38,93.78s16.09,1.57,35.9-9.1c25.37-13.65,32.24-28,32.24-28Z" style="fill:#FF725E"></path><path d="M360.6,211l-13.07-7.57-37.66,91.3,17.35,10.05s16.09,1.57,35.9-9.1c25.37-13.65,32.24-28,32.24-28Z" style="fill:#FF725E"></path><path d="M327.22,304.76s16.09,1.57,35.9-9.1c25.37-13.65,32.24-28,32.24-28" style="fill:#FF725E"></path><path d="M395.36,267.71l-2.94-4.8c-3.47,4.95-12.08,15-30.24,24.76-13.89,7.47-25.94,8.94-31.91,9.14l-3,7.95s16.09,1.57,35.9-9.1C388.49,282,395.36,267.71,395.36,267.71Z" style="fill:#ebebeb"></path><path d="M395.36,267.71l-1-1.69c-1.27,2.32-9.05,15.19-32,27.55-16.12,8.68-29.78,9.26-34.3,9.17l-.78,2s16.09,1.57,35.9-9.1C388.49,282,395.36,267.71,395.36,267.71Z" style="fill:#37474f"></path><polygon points="360.6 210.98 327.22 304.76 309.87 294.71 347.53 203.41 360.6 210.98" style="fill:#fff;opacity:0.2"></polygon><polygon points="328 302.74 327.22 304.76 309.87 294.71 310.67 292.65 328 302.74" style="fill:#455a64"></polygon><polygon points="330.27 296.81 312.71 287.32 310.67 292.65 328 302.74 330.27 296.81" style="fill:#fafafa"></polygon><path d="M367.44,258.6c0-.69.12-1,.52-1.2s.68.17.94.55a4.4,4.4,0,0,1,.59,1.34,1.41,1.41,0,0,1-.66,1.61.94.94,0,0,1-1.26-.77A5.9,5.9,0,0,1,367.44,258.6Z" style="fill:#263238"></path><path d="M353.72,258c.31-.58.51-.83.91-.74s.51.58.58,1.09a5.12,5.12,0,0,1,0,1.56,1.09,1.09,0,0,1-1.2,1,1.24,1.24,0,0,1-.76-1.47A5.86,5.86,0,0,1,353.72,258Z" style="fill:#263238"></path><path d="M376.43,247.2c-.14-.63-.14-1,.19-1.32s.71-.18,1.07.05a3,3,0,0,1,.91.92,1.48,1.48,0,0,1-.23,1.76.86.86,0,0,1-1.42-.09A4.32,4.32,0,0,1,376.43,247.2Z" style="fill:#263238"></path><path d="M378.1,259.28c-.13-.91-.12-1.38.35-1.78s1-.09,1.41.3a4.89,4.89,0,0,1,1.15,1.47,2.06,2.06,0,0,1-.42,2.39,1.18,1.18,0,0,1-1.88-.44A7.49,7.49,0,0,1,378.1,259.28Z" style="fill:#263238"></path><path d="M363.52,271.66c.24-.89.44-1.3,1-1.36s.84.53,1.07,1.15a6.78,6.78,0,0,1,.39,2,1.72,1.72,0,0,1-1.31,1.85c-.75.07-1.38-.63-1.41-1.58A8,8,0,0,1,363.52,271.66Z" style="fill:#263238"></path><path d="M346.7,274.29c.51-1,.84-1.46,1.53-1.4s.88.83,1,1.64a8.33,8.33,0,0,1,0,2.54,2.08,2.08,0,0,1-2,1.9,1.76,1.76,0,0,1-1.32-2.22A9.73,9.73,0,0,1,346.7,274.29Z" style="fill:#263238"></path><path d="M368.1,240.73c0-.61,0-.91.39-1.13s.63,0,.89.32A3.31,3.31,0,0,1,370,241a1.36,1.36,0,0,1-.5,1.52.78.78,0,0,1-1.18-.46A4.56,4.56,0,0,1,368.1,240.73Z" style="fill:#263238"></path><path d="M358.47,244.54c.23-.56.39-.82.76-.81s.51.4.61.83a4.37,4.37,0,0,1,.1,1.36,1.11,1.11,0,0,1-1,1.11,1,1,0,0,1-.81-1.14A5.24,5.24,0,0,1,358.47,244.54Z" style="fill:#263238"></path><path d="M360.6,211l-13.07-7.57L329.9,246.16a3.26,3.26,0,0,0,2.37-.12c1-.36,2.14-.81,3-.24s1,1.87.95,3q-.24,6.78-.46,13.57a4.06,4.06,0,0,0,.48,2.56,2.63,2.63,0,0,0,2.77.85,5.89,5.89,0,0,0,2.58-1.63c1.11-1.06,2.35-2.4,3.87-2.15s2.19,1.68,2.54,3,.51,2.84,1.42,3.91c1.6,1.88,4.83,1.38,6.59-.35s2.44-4.24,3.1-6.62,1.44-4.89,3.31-6.5a1,1,0,0,1,.92-.32c.38.13.48.62.67,1,.62,1.21,2.58,1.06,3.46,0a5.8,5.8,0,0,0,1-3.89,7.84,7.84,0,0,1,.6-4,2.05,2.05,0,0,1,1.57-1.13c1,0,1.74,1,2.37,1.77a10.75,10.75,0,0,0,9,4,4.25,4.25,0,0,0,2-.56A2.85,2.85,0,0,0,385.1,251Z" style="fill:#fff;opacity:0.07"></path><path d="M360.6,211l-13.07-7.57-9.47,23a4.13,4.13,0,0,1,2.16,1.19c1.27,1.46.87,3.72.1,5.51s-1.83,3.57-1.67,5.5a2.32,2.32,0,0,0,.3,1,2.61,2.61,0,0,0,2.7.87,13.13,13.13,0,0,1,3-.47c2.14.17,3.53,2.37,4,4.46a9.36,9.36,0,0,0,.84,2.83,2.11,2.11,0,0,0,2.5,1.06,2.91,2.91,0,0,0,1.19-1.39,28.88,28.88,0,0,0,2.08-5.24c.39-1.38.76-2.91,1.9-3.77a4,4,0,0,1,4.45.06c.85.52,1.87,1.3,2.72.78a2,2,0,0,0,.75-1.44,9.12,9.12,0,0,0-.19-3.89c-.16-.62-.38-1.36,0-1.85a1.36,1.36,0,0,1,.88-.42c1.73-.23,3.21,1.14,4.45,2.37s2.83,2.52,4.52,2.09a1.48,1.48,0,0,0,.72-.41Z" style="fill:#fff;opacity:0.07"></path><path d="M360.6,211l-13.07-7.57L341.94,217a2.91,2.91,0,0,0,2.34,1.64c1.34.06,2.76-1,3.91-.34.88.53,1,1.74,1,2.76a44.54,44.54,0,0,0,.49,5.53,5.51,5.51,0,0,0,.58,2,2,2,0,0,0,1.66,1.1c1.27,0,2-1.39,2.7-2.44a1.93,1.93,0,0,1,.62-.62,1.51,1.51,0,0,1,1.84.81,11,11,0,0,1,.64,2.12,4.7,4.7,0,0,0,2.14,2.65,1.24,1.24,0,0,0,.78.22c.55-.07.81-.71.91-1.26.51-2.73-.27-5.6.45-8.27.14-.53.46-1.13,1-1.14a1.13,1.13,0,0,1,.61.22,19.68,19.68,0,0,1,2.41,2.34c.83.74,2.14,1.22,3,.57Z" style="fill:#fff;opacity:0.07"></path><polygon points="347.53 203.41 357.73 211.65 330.27 296.81 360.6 210.98 347.53 203.41" style="fill:#fff;opacity:0.35000000000000003"></polygon><path d="M394.79,229.67l-33.37,93.78s16.08,1.57,35.9-9.1c25.36-13.65,32.23-28,32.23-28Z" style="fill:#FF725E"></path><path d="M394.79,229.67l-13.06-7.58L344.07,313.4l17.35,10.05s16.08,1.57,35.9-9.1c25.36-13.65,32.23-28,32.23-28Z" style="fill:#FF725E"></path><path d="M361.42,323.45s16.08,1.57,35.9-9.1c25.36-13.65,32.23-28,32.23-28" style="fill:#FF725E"></path><path d="M429.55,286.4l-2.94-4.8c-3.46,4.95-12.07,15-30.23,24.75a73.89,73.89,0,0,1-31.91,9.15l-3.05,7.95s16.08,1.57,35.9-9.1C422.68,300.7,429.55,286.4,429.55,286.4Z" style="fill:#ebebeb"></path><path d="M429.55,286.4l-1-1.69c-1.27,2.32-9,15.19-32,27.55-16.13,8.68-29.78,9.26-34.31,9.17l-.77,2s16.08,1.57,35.9-9.1C422.68,300.7,429.55,286.4,429.55,286.4Z" style="fill:#37474f"></path><polygon points="394.79 229.67 361.42 323.45 344.07 313.4 381.73 222.09 394.79 229.67" style="fill:#fff;opacity:0.2"></polygon><polygon points="362.19 321.43 361.42 323.45 344.07 313.4 344.86 311.33 362.19 321.43" style="fill:#455a64"></polygon><polygon points="364.47 315.5 346.9 306.01 344.86 311.33 362.19 321.43 364.47 315.5" style="fill:#fafafa"></polygon><path d="M401.64,277.28c0-.68.12-1,.51-1.19s.69.16,1,.55a4.54,4.54,0,0,1,.59,1.34,1.42,1.42,0,0,1-.67,1.61.93.93,0,0,1-1.25-.77A5.53,5.53,0,0,1,401.64,277.28Z" style="fill:#263238"></path><path d="M387.92,276.72c.31-.59.51-.83.91-.74s.51.58.58,1.09a5.39,5.39,0,0,1,0,1.55,1.09,1.09,0,0,1-1.2,1,1.24,1.24,0,0,1-.75-1.47A5.36,5.36,0,0,1,387.92,276.72Z" style="fill:#263238"></path><path d="M410.62,265.89c-.13-.63-.14-1,.2-1.32s.71-.18,1.07,0a3.19,3.19,0,0,1,.91.92,1.51,1.51,0,0,1-.23,1.77.87.87,0,0,1-1.42-.09A4.62,4.62,0,0,1,410.62,265.89Z" style="fill:#263238"></path><path d="M412.3,278c-.14-.91-.12-1.38.35-1.78s1-.09,1.41.3a4.89,4.89,0,0,1,1.15,1.47,2,2,0,0,1-.43,2.39,1.17,1.17,0,0,1-1.87-.44A6.79,6.79,0,0,1,412.3,278Z" style="fill:#263238"></path><path d="M397.72,290.35c.24-.89.44-1.3,1-1.36s.84.53,1.07,1.15a6.78,6.78,0,0,1,.39,2,1.7,1.7,0,0,1-1.31,1.84c-.75.08-1.38-.63-1.41-1.57A8,8,0,0,1,397.72,290.35Z" style="fill:#263238"></path><path d="M383.21,294c.51-1,.84-1.46,1.53-1.4s.88.83,1,1.64a8.26,8.26,0,0,1,0,2.53,2.08,2.08,0,0,1-2,1.91,1.76,1.76,0,0,1-1.32-2.22A10,10,0,0,1,383.21,294Z" style="fill:#263238"></path><path d="M402,257.36c-.09-.6-.08-.91.22-1.17s.63-.06.93.19a3.36,3.36,0,0,1,.77,1,1.36,1.36,0,0,1-.28,1.58.77.77,0,0,1-1.23-.29A4.58,4.58,0,0,1,402,257.36Z" style="fill:#263238"></path><path d="M395.28,264.23c.15-.59.28-.86.64-.91s.56.34.72.75a4.44,4.44,0,0,1,.29,1.33,1.13,1.13,0,0,1-.84,1.23c-.49.06-.92-.39-.95-1A5.46,5.46,0,0,1,395.28,264.23Z" style="fill:#263238"></path><path d="M394.79,229.67l-13.06-7.58L364.1,264.85a3.24,3.24,0,0,0,2.36-.12c1-.36,2.15-.81,3-.25s1,1.88.95,3L370,281a4.12,4.12,0,0,0,.47,2.56,2.67,2.67,0,0,0,2.78.85,5.89,5.89,0,0,0,2.58-1.63c1.1-1.06,2.35-2.4,3.87-2.16s2.19,1.69,2.54,3.05.51,2.84,1.42,3.91c1.6,1.88,4.82,1.38,6.58-.35s2.45-4.24,3.11-6.62,1.44-4.89,3.31-6.5a1,1,0,0,1,.91-.32c.39.13.49.62.67,1,.63,1.21,2.58,1,3.47,0a5.81,5.81,0,0,0,1-3.89,7.72,7.72,0,0,1,.6-4,2,2,0,0,1,1.57-1.13c1-.05,1.74.95,2.37,1.76a10.72,10.72,0,0,0,9,4,4.15,4.15,0,0,0,2-.57,2.84,2.84,0,0,0,1.06-1.35Z" style="fill:#fff;opacity:0.07"></path><path d="M394.79,229.67l-13.06-7.58-9.47,23a4.15,4.15,0,0,1,2.15,1.2c1.28,1.46.88,3.72.11,5.51s-1.84,3.56-1.67,5.5a2.32,2.32,0,0,0,.3,1,2.61,2.61,0,0,0,2.7.87,12.59,12.59,0,0,1,3-.47c2.13.17,3.53,2.37,4,4.46a9.43,9.43,0,0,0,.83,2.83,2.12,2.12,0,0,0,2.5,1,2.74,2.74,0,0,0,1.19-1.38,28.18,28.18,0,0,0,2.08-5.24c.4-1.38.76-2.91,1.91-3.78a4,4,0,0,1,4.44.07c.86.52,1.88,1.3,2.73.77a2,2,0,0,0,.75-1.43,9.12,9.12,0,0,0-.19-3.89c-.17-.63-.38-1.36,0-1.85a1.36,1.36,0,0,1,.88-.42c1.73-.23,3.21,1.14,4.44,2.37s2.84,2.52,4.53,2.09a1.53,1.53,0,0,0,.72-.41Z" style="fill:#fff;opacity:0.07"></path><path d="M394.79,229.67l-13.06-7.58-5.59,13.56a2.89,2.89,0,0,0,2.34,1.64c1.33.06,2.75-1,3.91-.34.88.52,1,1.74,1,2.76a46.21,46.21,0,0,0,.5,5.52,5.54,5.54,0,0,0,.57,2,2.07,2.07,0,0,0,1.67,1.1c1.27,0,2-1.39,2.7-2.44a1.75,1.75,0,0,1,.62-.62,1.51,1.51,0,0,1,1.84.81,12.66,12.66,0,0,1,.64,2.12,4.7,4.7,0,0,0,2.14,2.65,1.2,1.2,0,0,0,.77.22c.56-.08.82-.72.92-1.26.5-2.73-.27-5.6.45-8.27.14-.53.46-1.13,1-1.14a1.19,1.19,0,0,1,.62.22,18.92,18.92,0,0,1,2.4,2.34c.84.74,2.14,1.22,3.06.57Z" style="fill:#fff;opacity:0.07"></path><polygon points="381.73 222.09 391.93 230.34 364.47 315.5 394.79 229.67 381.73 222.09" style="fill:#fff;opacity:0.35000000000000003"></polygon><path d="M429,248.36l-33.37,93.78s16.08,1.57,35.9-9.1c25.36-13.65,32.23-28,32.23-28Z" style="fill:#FF725E"></path><path d="M429,248.36l-13.06-7.58-37.66,91.31,17.35,10.05s16.08,1.57,35.9-9.1c25.36-13.65,32.23-28,32.23-28Z" style="fill:#FF725E"></path><path d="M395.62,342.14s16.08,1.57,35.9-9.1c25.36-13.65,32.23-28,32.23-28" style="fill:#FF725E"></path><path d="M463.75,305.09l-2.94-4.8c-3.46,4.95-12.07,15-30.23,24.75a73.89,73.89,0,0,1-31.92,9.15l-3,7.95s16.08,1.57,35.9-9.1C456.88,319.39,463.75,305.09,463.75,305.09Z" style="fill:#ebebeb"></path><path d="M463.75,305.09l-1-1.69c-1.26,2.32-9,15.18-32,27.55-16.13,8.68-29.79,9.26-34.31,9.17l-.77,2s16.08,1.57,35.9-9.1C456.88,319.39,463.75,305.09,463.75,305.09Z" style="fill:#37474f"></path><polygon points="428.99 248.36 395.62 342.14 378.27 332.09 415.93 240.78 428.99 248.36" style="fill:#fff;opacity:0.2"></polygon><polygon points="396.39 340.12 395.62 342.14 378.27 332.09 379.06 330.02 396.39 340.12" style="fill:#455a64"></polygon><polygon points="398.66 334.19 381.1 324.7 379.06 330.02 396.39 340.12 398.66 334.19" style="fill:#fafafa"></polygon><path d="M435.83,296c.05-.69.13-1,.52-1.19s.68.16.94.55a4.3,4.3,0,0,1,.59,1.34,1.4,1.4,0,0,1-.66,1.61.93.93,0,0,1-1.25-.77A6,6,0,0,1,435.83,296Z" style="fill:#263238"></path><path d="M422.12,295.41c.3-.59.51-.83.91-.74s.51.58.58,1.09a5.39,5.39,0,0,1,0,1.55,1.09,1.09,0,0,1-1.2,1,1.23,1.23,0,0,1-.75-1.48A5.4,5.4,0,0,1,422.12,295.41Z" style="fill:#263238"></path><path d="M444.82,284.58c-.13-.64-.14-1,.2-1.32s.71-.18,1.06,0a3.1,3.1,0,0,1,.92.92,1.49,1.49,0,0,1-.24,1.77.87.87,0,0,1-1.42-.09A4.42,4.42,0,0,1,444.82,284.58Z" style="fill:#263238"></path><path d="M446.5,296.66c-.14-.91-.12-1.38.35-1.78s.95-.09,1.4.3a4.76,4.76,0,0,1,1.16,1.47A2,2,0,0,1,449,299a1.18,1.18,0,0,1-1.88-.44A7.2,7.2,0,0,1,446.5,296.66Z" style="fill:#263238"></path><path d="M431.91,309c.25-.9.45-1.3,1-1.36s.84.52,1.08,1.15a7.46,7.46,0,0,1,.39,2,1.71,1.71,0,0,1-1.31,1.84c-.75.08-1.39-.63-1.42-1.57A8.38,8.38,0,0,1,431.91,309Z" style="fill:#263238"></path><path d="M415.1,311.67c.5-1,.84-1.46,1.52-1.4s.89.83,1,1.64a8.27,8.27,0,0,1,0,2.53,2.09,2.09,0,0,1-2,1.91,1.76,1.76,0,0,1-1.32-2.22A9.47,9.47,0,0,1,415.1,311.67Z" style="fill:#263238"></path><path d="M436.49,278.11c0-.61.05-.92.39-1.13s.63,0,.89.32a3.31,3.31,0,0,1,.62,1.07,1.33,1.33,0,0,1-.5,1.51.77.77,0,0,1-1.18-.46A4.79,4.79,0,0,1,436.49,278.11Z" style="fill:#263238"></path><path d="M426.87,281.92c.22-.57.38-.82.75-.81s.51.4.62.83a4.35,4.35,0,0,1,.1,1.36,1.14,1.14,0,0,1-1,1.11,1,1,0,0,1-.8-1.14A5.24,5.24,0,0,1,426.87,281.92Z" style="fill:#263238"></path><path d="M429,248.36l-13.06-7.58-17.64,42.76a3.37,3.37,0,0,0,2.37-.12c1-.36,2.15-.81,3-.25s1,1.88.95,3q-.22,6.8-.46,13.58a4.06,4.06,0,0,0,.48,2.56,2.67,2.67,0,0,0,2.78.85,5.89,5.89,0,0,0,2.58-1.63c1.1-1.07,2.35-2.4,3.86-2.16s2.19,1.69,2.55,3,.51,2.85,1.41,3.92c1.6,1.88,4.83,1.38,6.59-.35s2.45-4.25,3.1-6.62,1.44-4.89,3.32-6.5a1,1,0,0,1,.91-.32c.39.13.48.61.67,1,.62,1.21,2.58,1,3.47,0a5.77,5.77,0,0,0,1-3.88,7.93,7.93,0,0,1,.6-4,2.08,2.08,0,0,1,1.58-1.14c1,0,1.73,1,2.37,1.77a10.74,10.74,0,0,0,9,4,4.22,4.22,0,0,0,2-.57,2.78,2.78,0,0,0,1.06-1.35Z" style="fill:#fff;opacity:0.07"></path><path d="M429,248.36l-13.06-7.58-9.47,23a4.08,4.08,0,0,1,2.15,1.2c1.28,1.46.87,3.72.11,5.5s-1.84,3.57-1.67,5.51a2.45,2.45,0,0,0,.29,1,2.62,2.62,0,0,0,2.7.87,12.76,12.76,0,0,1,3-.47c2.13.16,3.52,2.37,4,4.46a9.15,9.15,0,0,0,.83,2.83,2.11,2.11,0,0,0,2.5,1.05,2.74,2.74,0,0,0,1.19-1.38,28.88,28.88,0,0,0,2.08-5.24c.4-1.38.76-2.91,1.91-3.78a4,4,0,0,1,4.44.07c.85.52,1.87,1.3,2.73.77a2,2,0,0,0,.75-1.44,9.29,9.29,0,0,0-.19-3.89c-.17-.62-.38-1.35,0-1.84a1.36,1.36,0,0,1,.89-.42c1.73-.23,3.21,1.14,4.44,2.37s2.84,2.52,4.53,2.09a1.5,1.5,0,0,0,.71-.41Z" style="fill:#fff;opacity:0.07"></path><path d="M429,248.36l-13.06-7.58-5.59,13.56a2.89,2.89,0,0,0,2.33,1.64c1.34.06,2.76-1,3.91-.34.89.52,1,1.74,1,2.76a46.38,46.38,0,0,0,.49,5.52,5.77,5.77,0,0,0,.58,2,2.07,2.07,0,0,0,1.66,1.1c1.27,0,2-1.39,2.7-2.44a1.78,1.78,0,0,1,.63-.62,1.49,1.49,0,0,1,1.83.81,11.82,11.82,0,0,1,.65,2.12,4.75,4.75,0,0,0,2.13,2.65,1.24,1.24,0,0,0,.78.22c.55-.08.81-.72.92-1.26.5-2.73-.28-5.6.45-8.28.14-.52.46-1.12,1-1.13a1.19,1.19,0,0,1,.62.22,19.54,19.54,0,0,1,2.4,2.33c.83.75,2.14,1.23,3.05.58Z" style="fill:#fff;opacity:0.07"></path><polygon points="415.93 240.78 426.13 249.03 398.66 334.19 428.99 248.36 415.93 240.78" style="fill:#fff;opacity:0.35000000000000003"></polygon></g></g><g id="freepik--Character--inject-3"><g id="freepik--character--inject-3"><g id="freepik--Top--inject-3"><path d="M176.47,54.62c-6.6.83-11.5,3-15.65,10.61-2,3.77-2,8.21-4.49,11.7-1.6,2.22-5.9,4.15-8.34,5.4-6.92,3.57-9.18,10.9-7,17.83.66,2.08,1.91,3.94,2.37,6.07,1.64,8.83-8,14-12,20.65-2.13,3.54-2.84,8.42-.21,11.61,1.89,2.29,5.06,3.2,7,5.44,4.63,5.37-.22,14.44,3.45,20.5,6.77,10,21.68.71,30.66,5.92,2.42,1.39,4.24,3.66,6.67,5,9.16,4.56,20.62-1.88,25.12-10.28.78-1.45,1.46-3.05,2.77-4,2.06-1.56,5-1.18,7.3-2.46,7.85-5.65-1.12-15.36-1.83-22.35-.48-5.93,3.71-11.17,4.93-17,2.63-12.69-7.53-16-11.66-25.29-2.59-7.94,5.36-20.76-4.11-25.8-3-1-4.65-4.51-6.9-7.06C191,55.24,184,53.27,176.47,54.62Z" style="fill:#263238"></path><g id="freepik--Arms--inject-3"><g id="freepik--arms--inject-3" style="opacity:0.99"><g id="freepik--Arm--inject-3"><path d="M336,147c.43-5.05-.25-5.11-1.26-6.26s-3.95-1-3.95-1-.1-2-.17-2.65a13.17,13.17,0,0,0-.6-2.77,1.3,1.3,0,0,0-1.16-.84,7.59,7.59,0,0,0-1.07.07c-3.44.67-4.6,4-5.35,7-2,7.79.44,11.22-2.39,18.79-1.53,4.12-2.91,5.74-4.16,6.68-2.23.93-.72-9.39-5.31-13.37-2.28-2-4.74-.81-4.41,3.36.6,7.62-1.67,13.77-.48,19.2s3.27,9.5-.89,18.68c-3.94,8.68-11.64,19.1-14,22.07,0,0-6.71-11.27-22-38.39-8.14-14.46-18.89-25.68-32.87-25.3l-.74,47.16a571.09,571.09,0,0,0,35,49.76c10.05,12.8,26.4,22.51,37.6,1.2,1.41-2.59,2.88-5.46,4.36-8.46,9.39-18.53,12.78-33.52,15.88-42,4-11,6.57-13.68,11.13-22.27,2.4-4.51,1.79-8,2.24-13.45.57-7-1.14-9.23-2.42-9.46C340,149.5,337.45,147.64,336,147Z" style="fill:#ffa8a7"></path><path d="M336.37,155.51a5.09,5.09,0,0,0-1.54,2.36,10.3,10.3,0,0,0-.52,2.72l-.19,2.68-.15,2.67a14.9,14.9,0,0,1-.27,2.58,48,48,0,0,1-1.9,5,20.84,20.84,0,0,0,2.65-4.73,13,13,0,0,0,.46-2.73c.09-.9.14-1.79.21-2.69l.13-2.68a12.12,12.12,0,0,1,.32-2.56,5,5,0,0,1,1.13-2.22,3.5,3.5,0,0,1,2.3-1.06A3.47,3.47,0,0,0,336.37,155.51ZM334,147a3.25,3.25,0,0,1,1.83-.05,3,3,0,0,0-1.9-.2,3.17,3.17,0,0,0-1.65,1.1,9.54,9.54,0,0,0-1.59,3.55,63.38,63.38,0,0,0-1.16,7.56c-.12,1.26-.23,2.53-.31,3.8l0,.95-.06.4-.11.42a18.25,18.25,0,0,1-.64,1.73c-.49,1.15-1.06,2.27-1.64,3.39s-1.18,2.24-1.76,3.37a45.31,45.31,0,0,0,4.1-6.44,11.52,11.52,0,0,0,.78-1.79l.15-.49.09-.54.08-.93c.11-1.26.22-2.52.36-3.77.26-2.5.51-5,.9-7.49a9.23,9.23,0,0,1,1.24-3.43A2.79,2.79,0,0,1,334,147Z" style="fill:#f28f8f"></path><path d="M318.2,168c2.65,4.06,5.12,12.27,2.14,21.53C327.12,181.42,324.2,170.57,318.2,168Z" style="fill:#f28f8f"></path><path d="M290.78,216c-7.91,9.63-13.63,17.34-13.52,24.27-2.78-9.06,2.58-18.22,11.94-27Z" style="fill:#f28f8f"></path></g></g></g><g id="freepik--Chest--inject-3"><path d="M258.33,258.51a59.33,59.33,0,0,1,3.27,9.88s6.23,21.83-30.53,29c-29.71,5.77-60.51-.07-71.65-10.35,2.94-10.19,5.73-18.33,8.66-28.56,0,0-3.57-20.76-7.37-37.54-3.65-16.14-3.37-44.53-2.73-49.33,0,0,8.54-9.73,20.24-12.4l57.33-6.58c5.31.08,17.61,16.25,30,35.7,6.89,10.82,9.35,25.91-6.7,41.58C258.17,242.16,258.33,258.51,258.33,258.51Z" style="fill:#ffa8a7"></path><path d="M247.82,277.53c0-.16-.08-.31-.12-.46a8,8,0,0,0-.44-1.05,6.68,6.68,0,0,0-.75-1.15,5.37,5.37,0,0,0-1.14-1,7.71,7.71,0,0,0-.92-.55h0c.18-.2.35-.4.55-.59.57-.52,1.45-.81,1.28-1.74a1.17,1.17,0,0,0-.9-1c-1.12-.15-2.21.75-2.94,1.52a4.49,4.49,0,0,0-1.19,2,8.7,8.7,0,0,0-.12,3.52,7.25,7.25,0,0,0,.46,1.59,2.64,2.64,0,0,0,.84,1.27c.18.12.31-.22.31-.34,0-.51-.14-1-.18-1.49a5.72,5.72,0,0,1,0-1.17,4.44,4.44,0,0,1,.48-1.55l.16-.26.06,0a8.43,8.43,0,0,1,1.35.66,7.47,7.47,0,0,1,1.11.91,6.33,6.33,0,0,1,.84,1.14c.13.23.24.47.38.7s.18.38.37.48c.35.18.55-.22.54-.51s0-.37,0-.56S247.84,277.65,247.82,277.53Z" style="fill:#f28f8f"></path><path d="M167.83,158.76l26.28-7.2c18.19-.13,41.45.71,41.45.71,5.29.06,18.22,14.9,30.62,34.37,6.89,10.81,9.12,27.93-6.92,43.61-.09,3-.94,12.55-.94,12.55-3.46,9.64-48.37,28.42-92.82,1.46,0,0-4.09-16.39-5.53-24-5.48-28.94-7.31-42.59-5.14-49.65C156.51,165.11,159.14,162.34,167.83,158.76Z" style="fill:#ebebeb"></path><path d="M228.94,230.35s-6.16,10-21.46,9.91-24.1-10.82-27-20c0,0,1.41,21.9,24.79,24.65C224.51,247.14,228.94,230.35,228.94,230.35Z" style="fill:#e0e0e0"></path></g><path d="M185,136c-2.5-6.87-11.33-14.69-17.35-24.06-8.87-13.8-4.14-39.42,9.56-42.73,0,0,.9-11.66,21.8-17.19,21.38-5.64,40.73.69,48.51,14.67,8.42,15.14.62,27,.62,27Z" style="fill:#37474f"></path><path d="M236.93,140.5a32.94,32.94,0,0,1-14.83,2.68l.57,9.83a45,45,0,0,1,15.83,36.68c-31.86-5.42-51.75-36.83-51.75-36.83L185.07,121a10,10,0,0,1-9.21,0c-9-4.47-9.74-17.79-4.88-22.77s10.91-3.79,16.14,3.24c1.91,2.58,3.08,4.16,5.29,3.24,5-2.06.56-10.92,2.59-13.43,12.89-4.88,5.16-17.37,13.61-20.15,7.85-2.58,13.54,3.47,17.46,2.89,3.52-.53,4.55-5,8.86-4.66a8.75,8.75,0,0,1,5.23,2.3A23.77,23.77,0,0,1,246.45,82c1.22,3.75,1.92,8,1.58,15.5.26,3,1.49,7.19,1.73,11.21C250.77,125,246.2,136.73,236.93,140.5Z" style="fill:#ffa8a7"></path><path d="M222.1,143.18c-6.92-.83-24.64-2.68-31.52-18.23,0,0-.18,7.06,6.54,13.94s25.26,9.22,25.26,9.22Z" style="fill:#f28f8f"></path><path d="M243,91.63l-7.76-2.91a4,4,0,0,1,5.21-2.51A4.36,4.36,0,0,1,243,91.63Z" style="fill:#263238"></path><path d="M208.22,95.34l7.12-4.45a4,4,0,0,0-5.67-1.45A4.41,4.41,0,0,0,208.22,95.34Z" style="fill:#263238"></path><path d="M225.81,95.67l4.08,20,10.45-5C234.91,102.42,229,94.5,225.81,95.67Z" style="fill:#f28f8f"></path><path d="M211,100.6c0,1.89,1.52-.57,3.43-.48s3.45,2.69,3.49.81a3.56,3.56,0,0,0-3.39-3.59A3.34,3.34,0,0,0,211,100.6Z" style="fill:#263238"></path><path d="M236.07,99.51c.49,1.82,1.31-1,3.17-1.42s4.06,1.61,3.57-.21a3.56,3.56,0,0,0-4.26-2.49A3.34,3.34,0,0,0,236.07,99.51Z" style="fill:#263238"></path><path d="M228.54,123.41c-1.5-.2-4.85-1.07-4.6-2.45a9.39,9.39,0,0,0-.09-4.53c-.13-.32-.35.1-.35.3.08,4.6-3.93,9.37-8.92,9.47-.07,0-.12.16,0,.18a8.21,8.21,0,0,0,6.17-1.46c.92-.71,1.51-1.47,2.83-1.31,2.7.43,6.8,1.56,8.77-.76A8.36,8.36,0,0,1,228.54,123.41Z" style="fill:#b16668"></path><path d="M215.9,117.24c.61.18.93.2,1.23-.18s.11-.81-.13-1.22a3.76,3.76,0,0,0-.94-1.09,1.16,1.16,0,0,0-1.43,1.83A4.42,4.42,0,0,0,215.9,117.24Z" style="fill:#263238"></path><path d="M215,122.77c.4-.49.54-.78.31-1.19s-.7-.42-1.18-.36a4,4,0,0,0-1.36.45,1.15,1.15,0,0,0-.45,1.58,1.16,1.16,0,0,0,1.58.45A4.1,4.1,0,0,0,215,122.77Z" style="fill:#263238"></path><path d="M237,121.89c-.44.45-.61.73-.42,1.16s.67.48,1.15.46a4.07,4.07,0,0,0,1.4-.32,1.17,1.17,0,0,0-1-2.13A4.21,4.21,0,0,0,237,121.89Z" style="fill:#263238"></path><path d="M237.74,126.63c-.6-.23-.91-.28-1.24.07s-.17.8,0,1.23a4,4,0,0,0,.84,1.17A1.17,1.17,0,0,0,239,129a1.16,1.16,0,0,0-.06-1.64A4.53,4.53,0,0,0,237.74,126.63Z" style="fill:#263238"></path></g><path d="M273.1,384.94c-7.11.35-10.84,1.63-13.18,7.81s-.16,11-5.59,19.13c-6.89,10.24-8.63,17.61-6.77,28.22s4.9,18.31,11.9,24.14,14.93,6.3,18.31,2.57,2.91-9.57,3-14.35S273.1,384.94,273.1,384.94Z" style="fill:#263238"></path><path d="M305.48,275.26c35.56.09,65.42,3.29,75,9.35,7.92,5.05,11.16,12,9.48,23.16S382,330.13,365,346.82c-17.88,17.52-61,54.24-69.58,62.43s-12,29-12.62,40.36-1.47,15.35-8,15.77-14.5-4.62-19.76-13.87-6.09-21.87-2.73-29.22,9.25-13,9.25-19.34A19.28,19.28,0,0,1,270,386.76c5.47-3.57,13.66-3.78,18.5-9.88s20.24-34.34,20.24-34.34l-36,4.91S268.25,276.86,305.48,275.26Z" style="fill:#ffa8a7"></path><path d="M308.73,342.54c4.12-7.07,9.25-17.49,13.76-24s13.92-14.46,20.6-17.18c-16.25,4.66-23.48,12.59-30.55,22.23a193.57,193.57,0,0,0-12.75,20.22Z" style="fill:#f28f8f"></path><path d="M262.23,460.42c3.1,1.86,7.13,1.08,8.37-.78s.62-5.57-.46-8.83.46-9.14-1.4-15.8-11.15-15.81-10.53-22.94,3.26-7.89,3.26-7.89c-1.34,6.62,3.24,13.94,6.34,18.74s5.58,14.1,6.2,17.66,8.83-2,10.69-6.66l1.4-5.42s.93,6-1.24,10.38-8.68,7.28-10.69,9-2.48,5.58-2.48,5.58.93,4.64-.62,6.81S265.49,462.74,262.23,460.42Z" style="fill:#263238"></path><path d="M283,307.72c-5.43,23.49,2.09,39.9,2.09,39.9l-12.31,1.2-1.89-2.76-3.29-4.79c-3.51-5.08-9.05-14.6-25.67-15.65-3.21-.2-7-.38-11-.54h-.17a31.21,31.21,0,0,0-3.27-.11h-.14c-11.91.24-29.71,6.7-34.11,25.74-4,17.46,1.66,30.33,1.66,30.33s-22.83-2.11-36.61-27.14-3.32-57.68,2.05-69.83c8.46,8.46,45.34,17.39,69.5,12.66,26.12-5.11,32.66-17.48,31.84-28.4,2.85,4.21,11.72,5.25,43.86,6.94C305.48,275.26,288.42,284.24,283,307.72Z" style="fill:#455a64"></path><path d="M279.22,348.19l-6.46.63-1.87-2.75h0l-3.29-4.79c-3.51-5.08-9.05-14.6-25.67-15.65-3.21-.2-7-.38-11-.54l-3.44-.12h-.14c-16-.56-34.11-.77-34.11-.77s33.77-2.27,45.43-3c6.65-.43,11.95.09,16.38,1.8a34.1,34.1,0,0,0,7.84-19.83s1.93,12.42-3,22.43a24.71,24.71,0,0,1,3.88,3.42c4.68,5.1,11.28,13.67,13.86,17.07C278.27,347,279.22,348.19,279.22,348.19Z" style="fill:#37474f"></path><path d="M164.93,287.36s-.36,1.38-.55,2.09c-3.15,12-7.47,28.54-5.28,43.28,2.91,19.61,15.19,34.7,33.78,41.67-.15-.72-.3-1.5-.43-2.33-17.48-6.93-28.59-20.9-31.37-39.63-2.13-14.34,2.13-30.61,5.24-42.48l.44-1.67Z" style="fill:#37474f"></path><path d="M312,398.58c6.78.18,15.06,7,20.3,10.78s17.53,8,30.63,13.92,17.25,8.7,21.49,17.56c5,10.37-4.93,22.43-23.55,23.88-15.88,1.24-24-5.89-31-12.77s-14.57-15.89-23.75-21.79S288.45,399.4,312,398.58Z" style="fill:#263238"></path><path d="M194.65,380.55a52.76,52.76,0,0,1-1.47-29.85c4.4-19,22.2-25.5,34.11-25.74h.14a31.21,31.21,0,0,1,3.27.11h.17c4,.16,7.83.34,11,.54,16.62,1.05,22.16,10.57,25.67,15.65l3.29,4.79,1.89,2.76c6,7.94,33.51,44.41,37.52,48.56s7.38,4.16,14.46,9.85S344,418.16,354.29,422s18.68,7.6,24.31,13.69c4.65,5,2,11.71-3.33,11,.77,1.08,1,6.43-1.59,8.42-9.08,7.08-20.68,10.27-32.06,3.19s-14.11-13.05-20-17.2-15.08-11.7-24-17.08-37.37-19.47-50.3-26.39-19-13.49-19-13.49S204,383.1,194.65,380.55Z" style="fill:#ffa8a7"></path><path d="M291.28,416c-7.74-4-33.77-16.29-51-27.5S220,366.91,220,366.91s2,10,8.41,17.22c0,0,6,6.56,19,13.49s41.37,21,50.3,26.39l23,16.46C313.18,433.39,299,420,291.28,416Z" style="fill:#f28f8f"></path><path d="M377,447.05a7.1,7.1,0,0,0-2.77-4.56,23.19,23.19,0,0,1-6.2-8.41c-2.11-4.65-6.27-8.67-11.42-12.06-6.09-4.35-9.58-4.35-10.59-3.34h0a48.25,48.25,0,0,1,15.52,11.9c3.77,4.35,4.28,8.49,3.55,10.52s-9.5,6.31-23.71,4.28-21.77-5.95-27.57-9.72h0c.58,2.75,6.67,6.38,9.43,8.41s9.24,3.94,18.82,5.39a43.85,43.85,0,0,0,23.05-3.07c4.34-1.93,8.43-1.43,10.41,2.49.11.21.21.44.31.66h0a3.15,3.15,0,0,0,1.17-2.49Z" style="fill:#263238"></path><path d="M287.42,156.08c0,8.53-7.1,8.44-7.1,8.44s4.36,6.35.82,9.71-6,2.36-6,2.36,3.79,4.36.09,8.54c-2.81,3.18-7,2-7,2s1.55,5.26-3,7.26-8.84-4-8.84-4-2.24,6.9-11.23,4c0,0,11.09,13.18,27.25,7.28S294,164.8,287.42,156.08Z" style="fill:#FF725E"></path><path d="M287.42,156.08c0,8.53-7.1,8.44-7.1,8.44s4.36,6.35.82,9.71-6,2.36-6,2.36,3.79,4.36.09,8.54c-2.81,3.18-7,2-7,2s1.55,5.26-3,7.26-8.84-4-8.84-4-2.24,6.9-11.23,4c0,0,11.09,13.18,27.25,7.28S294,164.8,287.42,156.08Z" style="opacity:0.15"></path><path d="M197.92,208.63c-4,6.23-4,18.64-3.33,21.47,9.9,12.17,30.71,27.6,59.59,30.71S197.92,208.63,197.92,208.63Z" style="fill:#37474f"></path><path d="M220,250.34a89.68,89.68,0,0,1-18.31-12.82c-2.76-5.46-5.9-15.15-3.74-28.89a59.21,59.21,0,0,0,5.52,21C207,237.43,215.15,245.79,220,250.34Z" style="fill:#263238"></path><path d="M289.18,250.37c-48.68,31.8-85.79-21.17-90.62-42.11l36.57-21.48a9.17,9.17,0,0,0,8.43,3.18c-.09,6.28,8.91,10.2,13.47,5.34a7.79,7.79,0,0,0,7.52,4.27c5.85-.39,8.1-3.65,8.17-7.3,2.71,1.43,7.3.17,9.19-2.25s1.88-7.08-.15-9.4c1.94,0,4.63-1.93,5.72-3.54,2.74-4.05,1.33-7.41-1-10.27,3.57-2.07,2.74-6.95,1-10.73l35.71-21S345.34,213.68,289.18,250.37Z" style="fill:#FF725E"></path><path d="M297.05,198.17c2.1-2,4.73-3.43,6.5-5.72s2.27-6,0-7.83a9.86,9.86,0,0,1-2-1.56c-1.07-1.47,0-3.5,1.1-5l5.55-7.56a9.8,9.8,0,0,0,2.14-4.19c.23-1.57-.54-3.42-2.07-3.83a13.8,13.8,0,0,0-1.7-.18c-2.22-.35-3.61-2.73-3.74-5s.68-4.4,1.21-6.58a11.47,11.47,0,0,0,.34-4.65l-16.95,10c1.78,3.78,2.61,8.66-1,10.73,2.36,2.86,3.76,6.22,1,10.27-1.09,1.61-3.78,3.56-5.72,3.54,2,2.32,2,7,.15,9.4s-6.48,3.68-9.19,2.25c-.07,3.65-2.32,6.91-8.17,7.3A7.79,7.79,0,0,1,257,195.3c-4.56,4.86-13.56.94-13.47-5.34a9.17,9.17,0,0,1-8.43-3.18l-15.9,9.34a5.92,5.92,0,0,0,3,2.12c3.07,1.1,6.41,1,9.65,1.39s6.67,1.33,8.7,3.88c1.73,2.18,2.13,5.1,2.35,7.87s.35,5.67,1.69,8.1,4.36,4.21,6.94,3.17c1.84-.75,3.34-2.8,5.3-2.42a4,4,0,0,1,2.56,2.57c1.7,3.83,1.52,8.38,3.73,11.93.41.66,1,1.34,1.82,1.27s1.31-.94,1.61-1.72a19.57,19.57,0,0,0,1.23-5.6c.17-2.45.45-5.7,2.86-6.15,3.76-.71,5.33,6.83,9,5.85a30.7,30.7,0,0,0,1.17-13.16,10.46,10.46,0,0,1-.09-3.94,2.93,2.93,0,0,1,2.78-2.37,4.69,4.69,0,0,1,2.21,1.11,19.47,19.47,0,0,0,6.76,3.08c2.18.52,4.76.56,6.36-1a5.21,5.21,0,0,0,1.14-4.85,11.34,11.34,0,0,0-2.54-4.5c-.79-.93-1.69-2-1.36-3.21A3.24,3.24,0,0,1,297.05,198.17Z" style="fill:#fff;opacity:0.07"></path><path d="M286.46,166.81c2.36,2.86,3.76,6.22,1,10.27-1.09,1.61-3.78,3.56-5.72,3.54,2,2.32,2,7,.15,9.4s-6.48,3.68-9.19,2.25c-.07,3.65-2.32,6.91-8.17,7.3A7.79,7.79,0,0,1,257,195.3c-4.56,4.86-13.56.94-13.47-5.34a9.17,9.17,0,0,1-8.43-3.18l-5.95,3.49a1.25,1.25,0,0,0,0,1,1.68,1.68,0,0,0,.81.65c3.35,1.47,7.62-1.12,10.77.74,1.45.86,2.26,2.44,3,3.92a19.1,19.1,0,0,0,5.22,6.79c2.33,1.69,5.62,2.34,8.11.89.89-.52,1.71-1.3,2.75-1.35,2-.09,2.9,2.34,3.57,4.2a14,14,0,0,0,4.53,6.4c1.27,1,3.18,1.64,4.39.59a3.59,3.59,0,0,0,.85-1.28,22.07,22.07,0,0,0,1.56-9.54c0-1.4,0-2.95.9-4s2.93-1.17,4.48-.77,3.07,1.07,4.66.91a5.8,5.8,0,0,0,4.69-4.64,11.6,11.6,0,0,0-.94-6.87c-.63-1.56-1.4-3.38-.51-4.8,1.33-2.12,4.75-1,6.92-2.29,1.6-.93,2.19-2.92,2.6-4.73a4.69,4.69,0,0,0,.14-2c-.25-1.22-1.36-2-2.31-2.83-2.4-2-4.25-5.37-3.09-8.3,1-2.5,3.82-3.94,4.65-6.48a5.81,5.81,0,0,0-1.2-5.3l-8.38,4.92C289.2,159.86,290,164.74,286.46,166.81Z" style="fill:#fff;opacity:0.07"></path><path d="M254,260c-6.92-2.67-15.71-10.95-18.43-13.57a37.5,37.5,0,0,1-6.46-7.61,21.15,21.15,0,0,1-2.94-11.06c.06-3.82,1.16-7.56,1.36-11.37a24,24,0,0,0-1.15-8.74c-.64-2-1.56-4-1.61-6.06,0-1.24.23-2.47.27-3.7a4.65,4.65,0,0,0-1.1-3.45,2.54,2.54,0,0,0-.94-.55l-3.45,2-3.45,4.64c-.17,9.19-6.08,17.11-9.36,25.72C216.2,241.37,232.87,257.81,254,260Z" style="opacity:0.15"></path><path d="M287.42,156.08c1.78,3.78,2.61,8.66-1,10.73,2.36,2.86,3.76,6.22,1,10.27-1.09,1.61-3.78,3.56-5.72,3.54,2,2.32,2,7,.15,9.4a8.69,8.69,0,0,1-6.36,2.85c10.87,1.65,10.3-8.67,9.08-11.27,7.62-1.21,8-11.6,4.85-15.06,5-3.81,1.55-10,1.55-10l24.24-13.16c4.5,18.52,5.89,37.57,3.47,51.07l7.48-5.54c4-28.54-3.09-53.76-3.09-53.76Z" style="fill:#fff;opacity:0.35000000000000003"></path><path d="M203.72,205.23l0,0,2.18,5.86a79.13,79.13,0,0,0,16.23,25c7.81,8.21,20.5,18,36.63,18,8.87,0,18-3,27-8.91a73.19,73.19,0,0,0,26.77-30.92c4.82-10.37,7.67-22.37,8.48-35.67a144.68,144.68,0,0,0-2.12-33.83c-.41-2.05-1-4.25-1.53-6.28l5.74-3.38s22.21,78.56-33.95,115.26c-48.67,31.8-85.79-21.17-90.62-42.12Z" style="fill:#f5f5f5"></path><path d="M258.83,261c10.19,0,20.47-3.37,30.74-10.07a80.08,80.08,0,0,0,29.25-33.79c5.19-11.16,8.25-24,9.11-38.16a148.55,148.55,0,0,0-4.18-44.27l-1.25.74a146.59,146.59,0,0,1,4,43.49c-1.33,21.92-9,52-37.71,70.79-16,10.47-32.05,12.58-47.65,6.31-24-9.67-39.18-36.24-41.93-48.2l-1.29.75c2.81,12.21,18.19,38.91,42.68,48.77A48.42,48.42,0,0,0,258.83,261Z" style="fill:#455a64"></path><path d="M278,222.56c0-.72,0-1.08.4-1.3s.72.1,1,.47a4.48,4.48,0,0,1,.76,1.32,1.48,1.48,0,0,1-.51,1.75,1,1,0,0,1-1.38-.66A5.88,5.88,0,0,1,278,222.56Z" style="fill:#263238"></path><path d="M258.53,225.69c.26-.64.44-.91.86-.86s.6.54.73,1.06a5.79,5.79,0,0,1,.14,1.62c-.05.72-.56,1.26-1.13,1.18a1.28,1.28,0,0,1-.95-1.44A5.78,5.78,0,0,1,258.53,225.69Z" style="fill:#263238"></path><path d="M240.37,216.1c.47-.39.74-.51,1.09-.2s.3.85.21,1.38a5.22,5.22,0,0,1-.52,1.48.9.9,0,0,1-1.45.3,1.56,1.56,0,0,1-.26-1.84A4.43,4.43,0,0,1,240.37,216.1Z" style="fill:#263238"></path><path d="M224.87,198c.57,0,.85,0,1,.52a1.37,1.37,0,0,1-.36,1.31,3.61,3.61,0,0,1-1,.95,1,1,0,0,1-1.38-.66,1.46,1.46,0,0,1,.5-1.74A3.19,3.19,0,0,1,224.87,198Z" style="fill:#263238"></path><path d="M300.44,158.26c-.57,0-.85,0-1-.52a1.37,1.37,0,0,1,.35-1.32,3.71,3.71,0,0,1,1-.94,1,1,0,0,1,1.39.65,1.47,1.47,0,0,1-.51,1.75A3.32,3.32,0,0,1,300.44,158.26Z" style="fill:#263238"></path><path d="M300.87,184.66c-.51-.33-.73-.56-.7-1.1s.43-.75.84-.9a2.77,2.77,0,0,1,1.28-.17,1.29,1.29,0,0,1,.94,1.45c-.05.72-.55,1.25-1.13,1.18A3.35,3.35,0,0,1,300.87,184.66Z" style="fill:#263238"></path><path d="M293.46,207.54c-.31-.6-.41-.95-.17-1.39s.67-.37,1.08-.25a3.18,3.18,0,0,1,1.18.67,1.57,1.57,0,0,1,.26,1.84.91.91,0,0,1-1.46.31A4.88,4.88,0,0,1,293.46,207.54Z" style="fill:#263238"></path><path d="M244.88,231.09c.46-.66.75-.91,1.24-.68s.58.88.6,1.55a6.68,6.68,0,0,1-.24,2,1.22,1.22,0,0,1-1.65.95,1.78,1.78,0,0,1-.77-2.09A6.33,6.33,0,0,1,244.88,231.09Z" style="fill:#263238"></path><path d="M225.62,212.38c.67-.27,1-.31,1.36.21a1.78,1.78,0,0,1-.1,1.71,5.33,5.33,0,0,1-1,1.55,1.11,1.11,0,0,1-1.81-.22,1.92,1.92,0,0,1,.16-2.29A4.49,4.49,0,0,1,225.62,212.38Z" style="fill:#263238"></path><path d="M308.76,169.17c-.69-.18-1-.37-1.1-1a1.47,1.47,0,0,1,.76-1.41,3.65,3.65,0,0,1,1.47-.71c.7-.15,1.37.45,1.49,1.34a1.61,1.61,0,0,1-1,1.87A3.76,3.76,0,0,1,308.76,169.17Z" style="fill:#263238"></path><path d="M305.74,199.46c-.53-.6-.74-1-.55-1.59s.69-.71,1.22-.73a3.47,3.47,0,0,1,1.56.32,1.8,1.8,0,0,1,.77,2.1,1.22,1.22,0,0,1-1.65.95A4.93,4.93,0,0,1,305.74,199.46Z" style="fill:#263238"></path><path d="M291.13,223.63c-.22-.84-.26-1.29.15-1.71s.89-.18,1.35.13a5,5,0,0,1,1.24,1.27,1.93,1.93,0,0,1-.16,2.29,1.11,1.11,0,0,1-1.81-.22A6.56,6.56,0,0,1,291.13,223.63Z" style="fill:#263238"></path><path d="M268.85,235.21c.14-.87.29-1.28.81-1.38s.84.4,1.13,1a6.64,6.64,0,0,1,.57,1.88,1.62,1.62,0,0,1-1,1.87,1.37,1.37,0,0,1-1.49-1.34A7.8,7.8,0,0,1,268.85,235.21Z" style="fill:#263238"></path><path d="M249.07,214.39c.33-.48.54-.67.9-.5s.42.65.43,1.13a4.6,4.6,0,0,1-.17,1.43.89.89,0,0,1-1.2.7,1.3,1.3,0,0,1-.55-1.52A4.34,4.34,0,0,1,249.07,214.39Z" style="fill:#263238"></path><path d="M235.1,200.81c.48-.19.73-.22,1,.15a1.28,1.28,0,0,1-.07,1.24,3.76,3.76,0,0,1-.72,1.13.81.81,0,0,1-1.31-.16,1.41,1.41,0,0,1,.11-1.66A3.24,3.24,0,0,1,235.1,200.81Z" style="fill:#263238"></path><path d="M295.42,169.46c-.5-.13-.73-.27-.8-.75a1.08,1.08,0,0,1,.55-1,2.8,2.8,0,0,1,1.07-.52c.51-.1,1,.33,1.08,1a1.17,1.17,0,0,1-.75,1.36A2.74,2.74,0,0,1,295.42,169.46Z" style="fill:#263238"></path><path d="M293.23,191.44c-.38-.43-.53-.7-.4-1.15s.5-.52.88-.54a2.57,2.57,0,0,1,1.14.24,1.32,1.32,0,0,1,.56,1.52.89.89,0,0,1-1.2.69A3.61,3.61,0,0,1,293.23,191.44Z" style="fill:#263238"></path><path d="M282.63,209c-.16-.61-.19-.93.11-1.24s.64-.13,1,.1a3.59,3.59,0,0,1,.9.92,1.39,1.39,0,0,1-.12,1.66.8.8,0,0,1-1.31-.16A4.76,4.76,0,0,1,282.63,209Z" style="fill:#263238"></path><path d="M266.47,217.37c.1-.62.2-.92.58-1s.61.3.82.71a4.58,4.58,0,0,1,.41,1.36,1.18,1.18,0,0,1-.75,1.36,1,1,0,0,1-1.08-1A5.43,5.43,0,0,1,266.47,217.37Z" style="fill:#263238"></path><path d="M224.08,205.84c-.24-5.28-1.87-7.54-1.87-7.54a35.35,35.35,0,0,0,1-3.71c0-1.06-1.93-1.9-3.87-1.47-5.19,1.16-9.57,12.33-11.49,16.61s-6.48,9.8-10.61,11.19c-1.36.46-2.77,0-2.05-4.87a24.79,24.79,0,0,1,2.65-7.39c-1.22-3.21-4.22-3.62-5.37.06a60.09,60.09,0,0,1-3.21,7.57,32.67,32.67,0,0,0-2.91,10.48c-1.28,9-2,9-7.77,13-5.1,3.51-7.26,4.82-7.26,4.82l5.75-38.38c4.9-20.32-.11-42.21-9.74-47.46-14.92,3.89-25.39,7-28.81,31.83-2.75,19.89-10.94,67.1-6.85,92.62,2.15,13.38,19.67,17.33,31.3,9.12,17.33-12.22,28.6-27.89,37.38-37.26s14.89-11.8,19.94-22.3a47.85,47.85,0,0,0,3.7-9.78A134.19,134.19,0,0,0,224.08,205.84Z" style="fill:#ffa8a7"></path><path d="M131.67,283.16a15.34,15.34,0,0,0,3.21,6.74,15.88,15.88,0,0,0,6,4.34,22.09,22.09,0,0,0,14.48.76,23,23,0,0,0,6.63-3.08c2-1.43,4-3,6-4.57a137.72,137.72,0,0,0,11.17-10.16c7.17-7.11,13.48-15,20.48-22.47,1.78-1.84,3.62-3.62,5.53-5.3l5.75-5a44,44,0,0,0,5.29-5.37,41.18,41.18,0,0,0,4.15-6.34,35.44,35.44,0,0,1-3.73,6.66,45.29,45.29,0,0,1-5,5.77c-3.69,3.53-7.45,6.88-10.81,10.63s-6.58,7.68-9.88,11.54-6.73,7.65-10.32,11.27a136.51,136.51,0,0,1-11.4,10.24c-2,1.58-4.06,3.09-6.21,4.55a23.13,23.13,0,0,1-7.19,3.12,22.68,22.68,0,0,1-15.29-1.38,16.49,16.49,0,0,1-6-4.9,14.56,14.56,0,0,1-1.87-3.36A17.13,17.13,0,0,1,131.67,283.16Z" style="fill:#f28f8f"></path><path d="M171.32,244.55c-11.07,6.52-24.07,13.35-27.43,24.38,1.26-11.31,3.88-16.85,28.32-30.68Z" style="fill:#f28f8f"></path></g></g><g id="freepik--speech-bubble--inject-3"><g id="freepik--speech-bubble--inject-3"><g id="freepik--speech-bubble--inject-3"><path d="M328.24,67.65a31,31,0,0,0-49.4,37.14l-4.38,8.57a1.8,1.8,0,0,0,2.23,2.51l9-3.38a31,31,0,0,0,42.53-44.84Zm-4.12,42a28.44,28.44,0,0,1-19.71,7.22l-3.26-.26a28.57,28.57,0,0,1,3.26-56.86l3.27.11a28.56,28.56,0,0,1,16.44,49.79Z" style="fill:#455a64"></path></g><path id="freepik--Heart--inject-3" d="M305.15,106C285,95.26,283.35,83.73,289.21,78.09c5.26-5,14.87-1.72,15.94,5.5,1.07-7.22,10.68-10.55,15.93-5.5C327,83.73,325.32,95.26,305.15,106Z" style="fill:#FF725E"></path></g></g><g id="freepik--watermelon-1--inject-3"><g id="freepik--watermelon--inject-3"><path d="M178,342.81c4.17,6.55,4.25,19.6,3.51,22.58-10.42,12.8-32.3,29-62.67,32.3S178,342.81,178,342.81Z" style="fill:#37474f"></path><path d="M154.79,386.67A94.2,94.2,0,0,0,174,373.2c2.91-5.75,6.21-15.94,3.94-30.39a62.18,62.18,0,0,1-5.81,22.05C168.39,373.09,159.86,381.88,154.79,386.67Z" style="fill:#263238"></path><path d="M46.3,265.5l131,76.92c-5.09,22-44.11,77.73-95.3,44.28C23,348.12,46.3,265.5,46.3,265.5Z" style="fill:#FF725E"></path><path d="M52.35,269.05h0l114,70.88s-6.62,21.26-22.52,35-38.26,18.26-59.36,5.82l-2.72,5.81.26.18c51.19,33.45,90.21-22.26,95.3-44.28Z" style="fill:#fff;opacity:0.35000000000000003"></path><path d="M164.56,337.63a6.48,6.48,0,0,0,1.11-2.05L68.81,278.71a11.06,11.06,0,0,0-6.06,1.87c-2.18,1.6-3.38,4.79-2,7.14.65,1.11,1.78,1.94,2.14,3.18.59,2.08-1.27,4-3,5.28s-3.75,2.9-3.58,5.06c.29,3.91,6.74,4,8.42,7.55.84,1.77.19,3.89-.74,5.61s-2.18,3.33-2.59,5.24.35,4.3,2.23,4.84a11,11,0,0,0,2,.21c4,.48,5.92,5.42,5.73,9.5s-1.55,8.23-.36,12.13a3.52,3.52,0,0,0,.8,1.53c2.09,2.14,5.73-1.25,8.59-.35A4.36,4.36,0,0,1,83,351.05a36,36,0,0,1,.14,4.65,11.43,11.43,0,0,0,3.62,8.08,8.62,8.62,0,0,0,8.47,1.8c3.11-1.13,5.08-4.12,7.42-6.46s6-4.19,8.87-2.44c1.52.94,2.32,2.66,3.3,4.15,2,3,6.13,5.35,9.06,3.28,2.33-1.64,2.42-5,2.59-7.8s1.2-6.28,4-6.82c2.35-.46,4.39,1.46,6.36,2.82a16.12,16.12,0,0,0,8.64,2.84,2.69,2.69,0,0,0,2.27-.73,2.65,2.65,0,0,0,.41-1.47c.16-2.67-.29-5.56,1.09-7.85C152.24,340.1,160.85,342.13,164.56,337.63Z" style="fill:#fff;opacity:0.07"></path><path d="M82.53,286.76l-4.23-.13c-2.1-.07-5,.53-5,2.63,0,2.57,4.56,3.55,4.13,6.08a20.72,20.72,0,0,0-7.11,1.13c-.81.28-1.9.84-2.1,1.77s.68,1.59,1.38,2.07c.36.24.7.5,1,.77a4.9,4.9,0,0,0,1.75,1c2.43.72,5,1.18,7.41,1.77,1.17.27,2.65,1,2.43,2.17a2.38,2.38,0,0,1-.88,1.23l-7.65,6.95c-1.06,1-2.21,2.39-1.53,3.64A2.89,2.89,0,0,0,74.29,319a11.73,11.73,0,0,0,3.92.09c1.62-.24,3.6-.69,4.64.57a2.85,2.85,0,0,1,.26,2.76,13.32,13.32,0,0,1-1.48,2.48,14.63,14.63,0,0,0-2.16,5.73,2.56,2.56,0,0,0,0,1.2A2.07,2.07,0,0,0,80.76,333c1.78.68,3.73-.12,5.59-.56s4.27-.23,5,1.52c.54,1.24-.05,2.66-.69,3.85-1.11,2-2.44,4-2.81,6.27a5.43,5.43,0,0,0,1.8,5.17c1.68,1.23,4.11.49,6,0a5.32,5.32,0,0,0,3.24-2.41c1.32-2,2.25-4.23,4.05-5.87a4.32,4.32,0,0,1,.39-.34c2.31-1.85,6.56-1.75,7.5,1.06.3.88.2,1.85.43,2.75s1,1.81,2,1.63a2.43,2.43,0,0,0,1.29-1,55.06,55.06,0,0,0,4.29-6.48c.92-1.64,2.13-3.57,4-3.57s3,1.83,4.06,3.35,2.79,3.08,4.46,2.33c2.11-.95,1.38-4.12,2.19-6.29.9-2.4,3.83-3.44,6.38-3.27s5,1.21,7.51,1.64,5.48.08,7.06-1.94a4.49,4.49,0,0,0,.74-1.4Z" style="fill:#fff;opacity:0.07"></path><path d="M85,292.87a3.42,3.42,0,0,0-1.27,1.45c-.7,1.77,1.19,3.52,3,4.11s3.93.78,5.18,2.22c3,3.49-2.46,9.12-.43,13.25,1.29,1.39,3.57.41,5.21-.55s4.14-1.63,5.09,0a3.72,3.72,0,0,1,.34,1.79,32.67,32.67,0,0,1-.65,6.54c-.39,1.92-.7,4.44,1,5.34,1.57.81,3.43-.57,4.3-2.11s1.36-3.4,2.76-4.48a4.06,4.06,0,0,1,5.76,1.21c.61,1.11.64,2.44,1.08,3.63s1.65,2.31,2.85,1.92c1.91-.62,1.2-3.72,2.56-5.19s3.43-.71,5.06.1a18,18,0,0,0,5.71,2.23c2,.26,4.39-.54,5.21-2.43a4.37,4.37,0,0,0,.21-2.56L89.77,291A11.12,11.12,0,0,0,85,292.87Z" style="fill:#fff;opacity:0.07"></path><path d="M171.88,339.23v0l-2.3,6.17a83.43,83.43,0,0,1-17.07,26.29c-8.21,8.63-21.56,18.91-38.52,18.91-9.33,0-18.88-3.16-28.41-9.38a77,77,0,0,1-28.15-32.51c-5.07-10.91-8.07-23.53-8.91-37.51a151.31,151.31,0,0,1,2.23-35.58c.43-2.16,1-4.47,1.61-6.6L46.3,265.5S23,348.11,82,386.7c51.19,33.44,90.22-22.26,95.3-44.29Z" style="fill:#f5f5f5"></path><path d="M113.93,397.92c-10.71,0-21.53-3.54-32.33-10.59A84.13,84.13,0,0,1,50.84,351.8c-5.46-11.74-8.68-25.24-9.58-40.13a156.36,156.36,0,0,1,4.4-46.55l1.31.77a153.65,153.65,0,0,0-4.21,45.74c1.41,23.05,9.43,54.69,39.66,74.44,16.85,11,33.71,13.24,50.11,6.63,25.25-10.16,41.2-38.1,44.1-50.68l1.35.79c-3,12.84-19.13,40.92-44.89,51.29A50.94,50.94,0,0,1,113.93,397.92Z" style="fill:#455a64"></path><path d="M93.8,357.46c0-.76,0-1.13-.42-1.37s-.76.1-1.09.49a4.52,4.52,0,0,0-.8,1.39,1.55,1.55,0,0,0,.53,1.84,1,1,0,0,0,1.46-.69A6.55,6.55,0,0,0,93.8,357.46Z" style="fill:#263238"></path><path d="M114.24,360.75c-.27-.67-.46-1-.91-.91s-.62.57-.76,1.12a6,6,0,0,0-.14,1.7c0,.77.58,1.32,1.19,1.25a1.34,1.34,0,0,0,1-1.52A6,6,0,0,0,114.24,360.75Z" style="fill:#263238"></path><path d="M133.34,350.67c-.49-.41-.78-.54-1.15-.21a1.53,1.53,0,0,0-.22,1.44,5.27,5.27,0,0,0,.55,1.56,1,1,0,0,0,1.53.32,1.67,1.67,0,0,0,.27-1.94A4.89,4.89,0,0,0,133.34,350.67Z" style="fill:#263238"></path><path d="M149.64,331.67c-.59,0-.89,0-1.08.55a1.44,1.44,0,0,0,.38,1.38,3.71,3.71,0,0,0,1.09,1,1,1,0,0,0,1.46-.69,1.56,1.56,0,0,0-.54-1.84A3.33,3.33,0,0,0,149.64,331.67Z" style="fill:#263238"></path><path d="M70.17,289.84c.6,0,.9,0,1.09-.55a1.46,1.46,0,0,0-.38-1.38,3.83,3.83,0,0,0-1.09-1,1,1,0,0,0-1.46.69,1.55,1.55,0,0,0,.53,1.84A3.51,3.51,0,0,0,70.17,289.84Z" style="fill:#263238"></path><path d="M69.72,317.6c.53-.34.77-.59.73-1.16s-.45-.78-.88-.95a3,3,0,0,0-1.34-.17,1.36,1.36,0,0,0-1,1.52,1.2,1.2,0,0,0,1.19,1.25A3.55,3.55,0,0,0,69.72,317.6Z" style="fill:#263238"></path><path d="M77.51,341.66c.33-.63.43-1,.18-1.45s-.7-.4-1.14-.27a3.35,3.35,0,0,0-1.24.7,1.64,1.64,0,0,0-.27,1.94,1,1,0,0,0,1.53.32A5,5,0,0,0,77.51,341.66Z" style="fill:#263238"></path><path d="M128.6,366.43c-.49-.69-.79-1-1.31-.72s-.6.93-.63,1.63a7,7,0,0,0,.26,2.08,1.28,1.28,0,0,0,1.73,1,1.91,1.91,0,0,0,.81-2.21A6.94,6.94,0,0,0,128.6,366.43Z" style="fill:#263238"></path><path d="M148.85,346.76c-.7-.29-1.07-.33-1.43.21a1.93,1.93,0,0,0,.1,1.8,5.77,5.77,0,0,0,1,1.63,1.17,1.17,0,0,0,1.9-.23,2,2,0,0,0-.16-2.41A4.71,4.71,0,0,0,148.85,346.76Z" style="fill:#263238"></path><path d="M61.42,301.31c.73-.19,1.06-.39,1.16-1.08a1.58,1.58,0,0,0-.8-1.49,3.84,3.84,0,0,0-1.55-.74c-.74-.16-1.44.47-1.57,1.4a1.69,1.69,0,0,0,1.1,2A3.81,3.81,0,0,0,61.42,301.31Z" style="fill:#263238"></path><path d="M64.6,333.16c.55-.62.77-1,.58-1.66s-.73-.76-1.28-.78a3.7,3.7,0,0,0-1.65.34,1.89,1.89,0,0,0-.81,2.21,1.28,1.28,0,0,0,1.73,1A5,5,0,0,0,64.6,333.16Z" style="fill:#263238"></path><path d="M80,358.58c.23-.88.27-1.35-.16-1.8s-.93-.19-1.42.15a4.85,4.85,0,0,0-1.3,1.33,2,2,0,0,0,.17,2.41,1.17,1.17,0,0,0,1.9-.24A7.1,7.1,0,0,0,80,358.58Z" style="fill:#263238"></path><path d="M103.38,370.76c-.14-.91-.3-1.34-.84-1.46s-.89.43-1.19,1a6.86,6.86,0,0,0-.6,2,1.69,1.69,0,0,0,1.1,2c.73.16,1.43-.47,1.56-1.41A7.68,7.68,0,0,0,103.38,370.76Z" style="fill:#263238"></path><path d="M124.19,348.86c-.35-.5-.57-.69-1-.52s-.44.68-.45,1.19A5.16,5.16,0,0,0,123,351a.93.93,0,0,0,1.26.72,1.36,1.36,0,0,0,.59-1.59A4.84,4.84,0,0,0,124.19,348.86Z" style="fill:#263238"></path><path d="M138.89,334.59c-.51-.21-.78-.24-1,.15a1.39,1.39,0,0,0,.07,1.31,4.12,4.12,0,0,0,.76,1.18.84.84,0,0,0,1.38-.17,1.45,1.45,0,0,0-.12-1.74A3.34,3.34,0,0,0,138.89,334.59Z" style="fill:#263238"></path><path d="M75.45,301.62c.52-.14.77-.29.84-.79a1.15,1.15,0,0,0-.58-1.08,2.88,2.88,0,0,0-1.13-.54c-.53-.11-1,.35-1.13,1a1.22,1.22,0,0,0,.79,1.43A3,3,0,0,0,75.45,301.62Z" style="fill:#263238"></path><path d="M77.76,324.73c.4-.46.55-.73.42-1.21s-.53-.55-.94-.56a2.64,2.64,0,0,0-1.19.24,1.38,1.38,0,0,0-.59,1.6.94.94,0,0,0,1.26.73A3.84,3.84,0,0,0,77.76,324.73Z" style="fill:#263238"></path><path d="M88.9,343.17c.17-.64.2-1-.11-1.31s-.68-.13-1,.11a3.79,3.79,0,0,0-.94,1,1.47,1.47,0,0,0,.12,1.74.84.84,0,0,0,1.38-.17A4.77,4.77,0,0,0,88.9,343.17Z" style="fill:#263238"></path><path d="M105.9,352c-.11-.66-.22-1-.62-1.05s-.64.31-.86.74a4.74,4.74,0,0,0-.43,1.44,1.22,1.22,0,0,0,.79,1.42c.54.12,1-.34,1.14-1A6,6,0,0,0,105.9,352Z" style="fill:#263238"></path></g></g></svg>